REM DIRINDEX 1\2,1\3
REM DIRNAME cjc102,folder01,folder02
TITLE ""
FILE "CD2Track13.mp3" MP3
  TRACK 01 AUDIO
    TITLE "0:"
    INDEX 01 00:00:00
  TRACK 02 AUDIO
    TITLE "2:cjc102_2832"
    INDEX 01 00:00:25
  TRACK 03 AUDIO
    TITLE "0:"
    INDEX 01 00:00:72
  TRACK 04 AUDIO
    TITLE "3:cjc102_2833"
    INDEX 01 00:01:15
  TRACK 05 AUDIO
    TITLE "0:"
    INDEX 01 00:02:53
  TRACK 06 AUDIO
    TITLE "3:cjc102_2834"
    INDEX 01 00:02:67
  TRACK 07 AUDIO
    TITLE "0:"
    INDEX 01 00:06:28
  TRACK 08 AUDIO
    TITLE "2:cjc102_2835"
    INDEX 01 00:06:30
  TRACK 09 AUDIO
    TITLE "0:"
    INDEX 01 00:07:27
  TRACK 10 AUDIO
    TITLE "3:cjc102_2836"
    INDEX 01 00:08:13
  TRACK 11 AUDIO
    TITLE "0:"
    INDEX 01 00:09:08
  TRACK 12 AUDIO
    TITLE "2:cjc102_2837"
    INDEX 01 00:09:10
  TRACK 13 AUDIO
    TITLE "0:"
    INDEX 01 00:10:10
  TRACK 14 AUDIO
    TITLE "3:cjc102_2838"
    INDEX 01 00:11:09
  TRACK 15 AUDIO
    TITLE "0:"
    INDEX 01 00:11:70
  TRACK 16 AUDIO
    TITLE "2:cjc102_2839"
    INDEX 01 00:12:30
  TRACK 17 AUDIO
    TITLE "0:"
    INDEX 01 00:13:41
  TRACK 18 AUDIO
    TITLE "3:cjc102_2840"
    INDEX 01 00:14:39
  TRACK 19 AUDIO
    TITLE "0:"
    INDEX 01 00:15:38
  TRACK 20 AUDIO
    TITLE "2:cjc102_2841"
    INDEX 01 00:15:64
  TRACK 21 AUDIO
    TITLE "0:"
    INDEX 01 00:17:10
  TRACK 22 AUDIO
    TITLE "3:cjc102_2842"
    INDEX 01 00:17:47
  TRACK 23 AUDIO
    TITLE "0:"
    INDEX 01 00:18:42
  TRACK 24 AUDIO
    TITLE "2:cjc102_2843"
    INDEX 01 00:19:11
  TRACK 25 AUDIO
    TITLE "0:"
    INDEX 01 00:20:16
  TRACK 26 AUDIO
    TITLE "3:cjc102_2844"
    INDEX 01 00:21:35
  TRACK 27 AUDIO
    TITLE "0:"
    INDEX 01 00:22:13
  TRACK 28 AUDIO
    TITLE "2:cjc102_2845"
    INDEX 01 00:23:01
  TRACK 29 AUDIO
    TITLE "0:"
    INDEX 01 00:23:57
  TRACK 30 AUDIO
    TITLE "3:cjc102_2846"
    INDEX 01 00:25:11
  TRACK 31 AUDIO
    TITLE "0:"
    INDEX 01 00:26:07
  TRACK 32 AUDIO
    TITLE "2:cjc102_2847"
    INDEX 01 00:26:69
  TRACK 33 AUDIO
    TITLE "0:"
    INDEX 01 00:27:73
  TRACK 34 AUDIO
    TITLE "3:cjc102_2848"
    INDEX 01 00:29:38
  TRACK 35 AUDIO
    TITLE "0:"
    INDEX 01 00:30:34
  TRACK 36 AUDIO
    TITLE "2:cjc102_2849"
    INDEX 01 00:30:48
  TRACK 37 AUDIO
    TITLE "0:"
    INDEX 01 00:31:55
  TRACK 38 AUDIO
    TITLE "3:cjc102_2850"
    INDEX 01 00:32:58
  TRACK 39 AUDIO
    TITLE "0:"
    INDEX 01 00:33:54
  TRACK 40 AUDIO
    TITLE "2:cjc102_2851"
    INDEX 01 00:34:12
  TRACK 41 AUDIO
    TITLE "0:"
    INDEX 01 00:35:19
  TRACK 42 AUDIO
    TITLE "3:cjc102_2852"
    INDEX 01 00:36:52
  TRACK 43 AUDIO
    TITLE "0:"
    INDEX 01 00:37:42
  TRACK 44 AUDIO
    TITLE "2:cjc102_2853"
    INDEX 01 00:37:65
  TRACK 45 AUDIO
    TITLE "0:"
    INDEX 01 00:39:05
  TRACK 46 AUDIO
    TITLE "3:cjc102_2854"
    INDEX 01 00:40:26
  TRACK 47 AUDIO
    TITLE "0:"
    INDEX 01 00:41:22
  TRACK 48 AUDIO
    TITLE "2:cjc102_2855"
    INDEX 01 00:42:04
  TRACK 49 AUDIO
    TITLE "0:"
    INDEX 01 00:43:07
  TRACK 50 AUDIO
    TITLE "3:cjc102_2856"
    INDEX 01 00:43:74
  TRACK 51 AUDIO
    TITLE "0:"
    INDEX 01 00:45:16
  TRACK 52 AUDIO
    TITLE "2:cjc102_2857"
    INDEX 01 00:45:57
  TRACK 53 AUDIO
    TITLE "0:"
    INDEX 01 00:46:66
  TRACK 54 AUDIO
    TITLE "3:cjc102_2858"
    INDEX 01 00:47:72
  TRACK 55 AUDIO
    TITLE "0:"
    INDEX 01 00:49:10
  TRACK 56 AUDIO
    TITLE "2:cjc102_2859"
    INDEX 01 00:49:43
  TRACK 57 AUDIO
    TITLE "0:"
    INDEX 01 00:50:44
  TRACK 58 AUDIO
    TITLE "3:cjc102_2860"
    INDEX 01 00:52:06
  TRACK 59 AUDIO
    TITLE "0:"
    INDEX 01 00:53:25
  TRACK 60 AUDIO
    TITLE "2:cjc102_2861"
    INDEX 01 00:53:43
  TRACK 61 AUDIO
    TITLE "0:"
    INDEX 01 00:54:46
  TRACK 62 AUDIO
    TITLE "3:cjc102_2862"
    INDEX 01 00:55:38
  TRACK 63 AUDIO
    TITLE "0:"
    INDEX 01 00:56:55
  TRACK 64 AUDIO
    TITLE "2:cjc102_2863"
    INDEX 01 00:57:21
  TRACK 65 AUDIO
    TITLE "0:"
    INDEX 01 00:58:24
  TRACK 66 AUDIO
    TITLE "3:cjc102_2864"
    INDEX 01 00:59:63
  TRACK 67 AUDIO
    TITLE "0:"
    INDEX 01 01:00:72
  TRACK 68 AUDIO
    TITLE "2:cjc102_2865"
    INDEX 01 01:01:23
  TRACK 69 AUDIO
    TITLE "0:"
    INDEX 01 01:02:34
  TRACK 70 AUDIO
    TITLE "2:cjc102_2866"
    INDEX 01 01:02:67
  TRACK 71 AUDIO
    TITLE "0:"
    INDEX 01 01:04:13
  TRACK 72 AUDIO
    TITLE "3:cjc102_2867"
    INDEX 01 01:05:44
  TRACK 73 AUDIO
    TITLE "0:"
    INDEX 01 01:06:55
  TRACK 74 AUDIO
    TITLE "2:cjc102_2868"
    INDEX 01 01:07:02
  TRACK 75 AUDIO
    TITLE "0:"
    INDEX 01 01:08:19
  TRACK 76 AUDIO
    TITLE "2:cjc102_2869"
    INDEX 01 01:08:56
  TRACK 77 AUDIO
    TITLE "0:"
    INDEX 01 01:10:10
  TRACK 78 AUDIO
    TITLE "3:cjc102_2870"
    INDEX 01 01:11:23
  TRACK 79 AUDIO
    TITLE "0:"
    INDEX 01 01:12:46
  TRACK 80 AUDIO
    TITLE "2:cjc102_2871"
    INDEX 01 01:12:66
  TRACK 81 AUDIO
    TITLE "0:"
    INDEX 01 01:13:67
  TRACK 82 AUDIO
    TITLE "2:cjc102_2872"
    INDEX 01 01:14:31
  TRACK 83 AUDIO
    TITLE "0:"
    INDEX 01 01:15:44
  TRACK 84 AUDIO
    TITLE "3:cjc102_2873"
    INDEX 01 01:16:42
  TRACK 85 AUDIO
    TITLE "0:"
    INDEX 01 01:17:67
  TRACK 86 AUDIO
    TITLE "2:cjc102_2874"
    INDEX 01 01:18:11
  TRACK 87 AUDIO
    TITLE "0:"
    INDEX 01 01:19:19
  TRACK 88 AUDIO
    TITLE "2:cjc102_2875"
    INDEX 01 01:19:48
  TRACK 89 AUDIO
    TITLE "0:"
    INDEX 01 01:20:63
  TRACK 90 AUDIO
    TITLE "3:cjc102_2876"
    INDEX 01 01:21:63
  TRACK 91 AUDIO
    TITLE "0:"
    INDEX 01 01:23:13
  TRACK 92 AUDIO
    TITLE "2:cjc102_2877"
    INDEX 01 01:23:18
  TRACK 93 AUDIO
    TITLE "0:"
    INDEX 01 01:24:28
  TRACK 94 AUDIO
    TITLE "2:cjc102_2878"
    INDEX 01 01:24:67
  TRACK 95 AUDIO
    TITLE "0:"
    INDEX 01 01:26:07
  TRACK 96 AUDIO
    TITLE "3:cjc102_2879"
    INDEX 01 01:27:34
  TRACK 97 AUDIO
    TITLE "0:"
    INDEX 01 01:28:43
  TRACK 98 AUDIO
    TITLE "2:cjc102_2880"
    INDEX 01 01:28:49
  TRACK 99 AUDIO
    TITLE "0:"
    INDEX 01 01:29:54
  TRACK 100 AUDIO
    TITLE "2:cjc102_2881"
    INDEX 01 01:30:13
  TRACK 101 AUDIO
    TITLE "0:"
    INDEX 01 01:31:28
  TRACK 102 AUDIO
    TITLE "3:cjc102_2882"
    INDEX 01 01:32:35
  TRACK 103 AUDIO
    TITLE "0:"
    INDEX 01 01:33:64
  TRACK 104 AUDIO
    TITLE "2:cjc102_2883"
    INDEX 01 01:34:06
  TRACK 105 AUDIO
    TITLE "0:"
    INDEX 01 01:35:35
  TRACK 106 AUDIO
    TITLE "3:cjc102_2884"
    INDEX 01 01:36:62
  TRACK 107 AUDIO
    TITLE "0:"
    INDEX 01 01:38:10
  TRACK 108 AUDIO
    TITLE "2:cjc102_2885"
    INDEX 01 01:38:20
  TRACK 109 AUDIO
    TITLE "0:"
    INDEX 01 01:40:54
  TRACK 110 AUDIO
    TITLE "3:cjc102_2886"
    INDEX 01 01:42:39
  TRACK 111 AUDIO
    TITLE "0:"
    INDEX 01 01:43:66
  TRACK 112 AUDIO
    TITLE "2:cjc102_2887"
    INDEX 01 01:44:13
  TRACK 113 AUDIO
    TITLE "0:"
    INDEX 01 01:47:07
